# xmcd CD database file
#
# Track frame offsets:
#	150
#	12635
#	26445
#	44777
#	55484
#	67752
#	79029
#	93521
#	106325
#	118517
#	130317
#	142554
#	154198
#	169242
#	181824
#	196545
#	210643
#	220882
#	233276
#	242821
#
# Disc length: 3405 seconds
#
# Revision: 0
# Processed by: cddbd v1.5.2PL0 Copyright (c) Steve Scherf et al.
# Submitted via: CDex 1.51
#
DISCID=080d4b14
DTITLE=Bobby Mackey - 25th Anniversary Collection (Vol 1)
DYEAR=0000
DGENRE=Country
TTITLE0=Same Ole Me
TTITLE1=Telephone Romance
TTITLE2=Hero Daddy
TTITLE3=Be My Baby
TTITLE4=At The Drop of a Tear
TTITLE5=Bright Lights and Country Music
TTITLE6=I Know Her Way
TTITLE7=Down the River of Love
TTITLE8=Wake Up Long Enough to Tell Me Good-bye
TTITLE9=She's Looking For Love
TTITLE10=The Night Has a Thousand Eyes
TTITLE11=Stone Heart
TTITLE12=Honky Tonk Songs
TTITLE13=Send Me the Pillow
TTITLE14=Lay Down Sally
TTITLE15=Hard Act to Follow
TTITLE16=Count Me In
TTITLE17=Life Turned Her That Way
TTITLE18=Beware of the Night
TTITLE19=Pepsi Man
EXTD=YEAR: 0000
EXTT0=
EXTT1=
EXTT2=
EXTT3=
EXTT4=
EXTT5=
EXTT6=
EXTT7=
EXTT8=
EXTT9=
EXTT10=
EXTT11=
EXTT12=
EXTT13=
EXTT14=
EXTT15=
EXTT16=
EXTT17=
EXTT18=
EXTT19=
PLAYORDER=
